<mxfile host="app.diagrams.net" modified="2021-02-26T04:34:24.814Z" agent="5.0 (Windows NT 10.0; Win64; x64) AppleWebKit/537.36 (KHTML, like Gecko) Chrome/88.0.4324.182 Safari/537.36" etag="EdTAgsztu_NXKgehnDCR" version="14.4.2" type="github">
  <diagram id="q3DHzyylVSjhvPdqJ01j" name="Page-1">
    <mxGraphModel dx="782" dy="475" grid="1" gridSize="10" guides="1" tooltips="1" connect="1" arrows="1" fold="1" page="1" pageScale="1" pageWidth="850" pageHeight="1100" math="0" shadow="0">
      <root>
        <mxCell id="0" />
        <mxCell id="1" parent="0" />
        <mxCell id="aCyn5NSVWf0VDw9uky3m-24" style="edgeStyle=orthogonalEdgeStyle;rounded=0;orthogonalLoop=1;jettySize=auto;html=1;curved=1;exitX=0.608;exitY=1.133;exitDx=0;exitDy=0;exitPerimeter=0;entryX=0.653;entryY=1.033;entryDx=0;entryDy=0;entryPerimeter=0;strokeWidth=2;sketch=0;" edge="1" parent="1" source="aCyn5NSVWf0VDw9uky3m-7" target="aCyn5NSVWf0VDw9uky3m-18">
          <mxGeometry relative="1" as="geometry">
            <Array as="points">
              <mxPoint x="266" y="220" />
              <mxPoint x="599" y="220" />
            </Array>
          </mxGeometry>
        </mxCell>
        <mxCell id="aCyn5NSVWf0VDw9uky3m-1" value="" style="shape=table;html=1;whiteSpace=wrap;startSize=0;container=1;collapsible=0;childLayout=tableLayout;shadow=0;fillColor=#ffe6cc;strokeColor=#d79b00;strokeWidth=2;" vertex="1" parent="1">
          <mxGeometry x="120" y="130" width="240" height="40" as="geometry" />
        </mxCell>
        <mxCell id="aCyn5NSVWf0VDw9uky3m-2" value="" style="shape=partialRectangle;html=1;whiteSpace=wrap;collapsible=0;dropTarget=0;pointerEvents=0;fillColor=none;top=0;left=0;bottom=0;right=0;points=[[0,0.5],[1,0.5]];portConstraint=eastwest;" vertex="1" parent="aCyn5NSVWf0VDw9uky3m-1">
          <mxGeometry width="240" height="20" as="geometry" />
        </mxCell>
        <mxCell id="aCyn5NSVWf0VDw9uky3m-3" value="sip" style="shape=partialRectangle;html=1;whiteSpace=wrap;connectable=0;overflow=hidden;fillColor=none;top=0;left=0;bottom=0;right=0;" vertex="1" parent="aCyn5NSVWf0VDw9uky3m-2">
          <mxGeometry width="60" height="20" as="geometry" />
        </mxCell>
        <mxCell id="aCyn5NSVWf0VDw9uky3m-4" value="sport" style="shape=partialRectangle;html=1;whiteSpace=wrap;connectable=0;overflow=hidden;fillColor=none;top=0;left=0;bottom=0;right=0;" vertex="1" parent="aCyn5NSVWf0VDw9uky3m-2">
          <mxGeometry x="60" width="60" height="20" as="geometry" />
        </mxCell>
        <mxCell id="aCyn5NSVWf0VDw9uky3m-5" value="dip" style="shape=partialRectangle;html=1;whiteSpace=wrap;connectable=0;overflow=hidden;fillColor=none;top=0;left=0;bottom=0;right=0;" vertex="1" parent="aCyn5NSVWf0VDw9uky3m-2">
          <mxGeometry x="120" width="60" height="20" as="geometry" />
        </mxCell>
        <mxCell id="aCyn5NSVWf0VDw9uky3m-6" value="dport" style="shape=partialRectangle;html=1;whiteSpace=wrap;connectable=0;overflow=hidden;fillColor=none;top=0;left=0;bottom=0;right=0;" vertex="1" parent="aCyn5NSVWf0VDw9uky3m-2">
          <mxGeometry x="180" width="60" height="20" as="geometry" />
        </mxCell>
        <mxCell id="aCyn5NSVWf0VDw9uky3m-7" value="" style="shape=partialRectangle;html=1;whiteSpace=wrap;collapsible=0;dropTarget=0;pointerEvents=0;fillColor=none;top=0;left=0;bottom=0;right=0;points=[[0,0.5],[1,0.5]];portConstraint=eastwest;" vertex="1" parent="aCyn5NSVWf0VDw9uky3m-1">
          <mxGeometry y="20" width="240" height="20" as="geometry" />
        </mxCell>
        <mxCell id="aCyn5NSVWf0VDw9uky3m-8" value="pod_ip" style="shape=partialRectangle;html=1;whiteSpace=wrap;connectable=0;overflow=hidden;fillColor=none;top=0;left=0;bottom=0;right=0;" vertex="1" parent="aCyn5NSVWf0VDw9uky3m-7">
          <mxGeometry width="60" height="20" as="geometry" />
        </mxCell>
        <mxCell id="aCyn5NSVWf0VDw9uky3m-9" value="random" style="shape=partialRectangle;html=1;whiteSpace=wrap;connectable=0;overflow=hidden;fillColor=none;top=0;left=0;bottom=0;right=0;" vertex="1" parent="aCyn5NSVWf0VDw9uky3m-7">
          <mxGeometry x="60" width="60" height="20" as="geometry" />
        </mxCell>
        <mxCell id="aCyn5NSVWf0VDw9uky3m-10" value="svc_ip" style="shape=partialRectangle;html=1;whiteSpace=wrap;connectable=0;overflow=hidden;fillColor=none;top=0;left=0;bottom=0;right=0;" vertex="1" parent="aCyn5NSVWf0VDw9uky3m-7">
          <mxGeometry x="120" width="60" height="20" as="geometry" />
        </mxCell>
        <mxCell id="aCyn5NSVWf0VDw9uky3m-11" value="svc_port" style="shape=partialRectangle;html=1;whiteSpace=wrap;connectable=0;overflow=hidden;fillColor=none;top=0;left=0;bottom=0;right=0;" vertex="1" parent="aCyn5NSVWf0VDw9uky3m-7">
          <mxGeometry x="180" width="60" height="20" as="geometry" />
        </mxCell>
        <mxCell id="aCyn5NSVWf0VDw9uky3m-12" value="" style="shape=table;html=1;whiteSpace=wrap;startSize=0;container=1;collapsible=0;childLayout=tableLayout;shadow=0;fillColor=#ffe6cc;strokeColor=#d79b00;strokeWidth=2;" vertex="1" parent="1">
          <mxGeometry x="440" y="130" width="244" height="40" as="geometry" />
        </mxCell>
        <mxCell id="aCyn5NSVWf0VDw9uky3m-13" value="" style="shape=partialRectangle;html=1;whiteSpace=wrap;collapsible=0;dropTarget=0;pointerEvents=0;fillColor=none;top=0;left=0;bottom=0;right=0;points=[[0,0.5],[1,0.5]];portConstraint=eastwest;" vertex="1" parent="aCyn5NSVWf0VDw9uky3m-12">
          <mxGeometry width="244" height="20" as="geometry" />
        </mxCell>
        <mxCell id="aCyn5NSVWf0VDw9uky3m-14" value="sip" style="shape=partialRectangle;html=1;whiteSpace=wrap;connectable=0;overflow=hidden;fillColor=none;top=0;left=0;bottom=0;right=0;" vertex="1" parent="aCyn5NSVWf0VDw9uky3m-13">
          <mxGeometry width="61" height="20" as="geometry" />
        </mxCell>
        <mxCell id="aCyn5NSVWf0VDw9uky3m-15" value="sport" style="shape=partialRectangle;html=1;whiteSpace=wrap;connectable=0;overflow=hidden;fillColor=none;top=0;left=0;bottom=0;right=0;" vertex="1" parent="aCyn5NSVWf0VDw9uky3m-13">
          <mxGeometry x="61" width="61" height="20" as="geometry" />
        </mxCell>
        <mxCell id="aCyn5NSVWf0VDw9uky3m-16" value="dip" style="shape=partialRectangle;html=1;whiteSpace=wrap;connectable=0;overflow=hidden;fillColor=none;top=0;left=0;bottom=0;right=0;" vertex="1" parent="aCyn5NSVWf0VDw9uky3m-13">
          <mxGeometry x="122" width="61" height="20" as="geometry" />
        </mxCell>
        <mxCell id="aCyn5NSVWf0VDw9uky3m-17" value="dport" style="shape=partialRectangle;html=1;whiteSpace=wrap;connectable=0;overflow=hidden;fillColor=none;top=0;left=0;bottom=0;right=0;" vertex="1" parent="aCyn5NSVWf0VDw9uky3m-13">
          <mxGeometry x="183" width="61" height="20" as="geometry" />
        </mxCell>
        <mxCell id="aCyn5NSVWf0VDw9uky3m-18" value="" style="shape=partialRectangle;html=1;whiteSpace=wrap;collapsible=0;dropTarget=0;pointerEvents=0;fillColor=none;top=0;left=0;bottom=0;right=0;points=[[0,0.5],[1,0.5]];portConstraint=eastwest;" vertex="1" parent="aCyn5NSVWf0VDw9uky3m-12">
          <mxGeometry y="20" width="244" height="20" as="geometry" />
        </mxCell>
        <mxCell id="aCyn5NSVWf0VDw9uky3m-19" value="pod_ip" style="shape=partialRectangle;html=1;whiteSpace=wrap;connectable=0;overflow=hidden;fillColor=none;top=0;left=0;bottom=0;right=0;" vertex="1" parent="aCyn5NSVWf0VDw9uky3m-18">
          <mxGeometry width="61" height="20" as="geometry" />
        </mxCell>
        <mxCell id="aCyn5NSVWf0VDw9uky3m-20" value="random" style="shape=partialRectangle;html=1;whiteSpace=wrap;connectable=0;overflow=hidden;fillColor=none;top=0;left=0;bottom=0;right=0;" vertex="1" parent="aCyn5NSVWf0VDw9uky3m-18">
          <mxGeometry x="61" width="61" height="20" as="geometry" />
        </mxCell>
        <mxCell id="aCyn5NSVWf0VDw9uky3m-21" value="127.0.0.1" style="shape=partialRectangle;html=1;whiteSpace=wrap;connectable=0;overflow=hidden;fillColor=#f8cecc;top=0;left=0;bottom=0;right=0;strokeColor=#b85450;strokeWidth=2;" vertex="1" parent="aCyn5NSVWf0VDw9uky3m-18">
          <mxGeometry x="122" width="61" height="20" as="geometry" />
        </mxCell>
        <mxCell id="aCyn5NSVWf0VDw9uky3m-22" value="15001" style="shape=partialRectangle;html=1;whiteSpace=wrap;connectable=0;overflow=hidden;fillColor=#f8cecc;top=0;left=0;bottom=0;right=0;perimeterSpacing=0;" vertex="1" parent="aCyn5NSVWf0VDw9uky3m-18">
          <mxGeometry x="183" width="61" height="20" as="geometry" />
        </mxCell>
        <mxCell id="aCyn5NSVWf0VDw9uky3m-36" style="edgeStyle=orthogonalEdgeStyle;rounded=0;orthogonalLoop=1;jettySize=auto;html=1;curved=1;exitX=0.608;exitY=1.133;exitDx=0;exitDy=0;exitPerimeter=0;strokeWidth=2;sketch=0;entryX=0.256;entryY=0.933;entryDx=0;entryDy=0;entryPerimeter=0;" edge="1" parent="1" source="aCyn5NSVWf0VDw9uky3m-43" target="aCyn5NSVWf0VDw9uky3m-65">
          <mxGeometry relative="1" as="geometry">
            <Array as="points">
              <mxPoint x="256" y="380" />
              <mxPoint x="505" y="380" />
            </Array>
            <mxPoint x="590" y="350" as="targetPoint" />
          </mxGeometry>
        </mxCell>
        <mxCell id="aCyn5NSVWf0VDw9uky3m-37" value="" style="shape=table;html=1;whiteSpace=wrap;startSize=0;container=1;collapsible=0;childLayout=tableLayout;shadow=0;fillColor=#ffe6cc;strokeColor=#d79b00;strokeWidth=2;rounded=0;sketch=0;" vertex="1" parent="1">
          <mxGeometry x="110" y="290" width="240" height="40" as="geometry" />
        </mxCell>
        <mxCell id="aCyn5NSVWf0VDw9uky3m-38" value="" style="shape=partialRectangle;html=1;whiteSpace=wrap;collapsible=0;dropTarget=0;pointerEvents=0;fillColor=none;top=0;left=0;bottom=0;right=0;points=[[0,0.5],[1,0.5]];portConstraint=eastwest;" vertex="1" parent="aCyn5NSVWf0VDw9uky3m-37">
          <mxGeometry width="240" height="20" as="geometry" />
        </mxCell>
        <mxCell id="aCyn5NSVWf0VDw9uky3m-39" value="sip" style="shape=partialRectangle;html=1;whiteSpace=wrap;connectable=0;overflow=hidden;fillColor=none;top=0;left=0;bottom=0;right=0;" vertex="1" parent="aCyn5NSVWf0VDw9uky3m-38">
          <mxGeometry width="60" height="20" as="geometry" />
        </mxCell>
        <mxCell id="aCyn5NSVWf0VDw9uky3m-40" value="sport" style="shape=partialRectangle;html=1;whiteSpace=wrap;connectable=0;overflow=hidden;fillColor=none;top=0;left=0;bottom=0;right=0;" vertex="1" parent="aCyn5NSVWf0VDw9uky3m-38">
          <mxGeometry x="60" width="60" height="20" as="geometry" />
        </mxCell>
        <mxCell id="aCyn5NSVWf0VDw9uky3m-41" value="dip" style="shape=partialRectangle;html=1;whiteSpace=wrap;connectable=0;overflow=hidden;fillColor=none;top=0;left=0;bottom=0;right=0;" vertex="1" parent="aCyn5NSVWf0VDw9uky3m-38">
          <mxGeometry x="120" width="60" height="20" as="geometry" />
        </mxCell>
        <mxCell id="aCyn5NSVWf0VDw9uky3m-42" value="dport" style="shape=partialRectangle;html=1;whiteSpace=wrap;connectable=0;overflow=hidden;fillColor=none;top=0;left=0;bottom=0;right=0;" vertex="1" parent="aCyn5NSVWf0VDw9uky3m-38">
          <mxGeometry x="180" width="60" height="20" as="geometry" />
        </mxCell>
        <mxCell id="aCyn5NSVWf0VDw9uky3m-43" value="" style="shape=partialRectangle;html=1;whiteSpace=wrap;collapsible=0;dropTarget=0;pointerEvents=0;fillColor=none;top=0;left=0;bottom=0;right=0;points=[[0,0.5],[1,0.5]];portConstraint=eastwest;" vertex="1" parent="aCyn5NSVWf0VDw9uky3m-37">
          <mxGeometry y="20" width="240" height="20" as="geometry" />
        </mxCell>
        <mxCell id="aCyn5NSVWf0VDw9uky3m-44" value="127.0.0.1" style="shape=partialRectangle;html=1;whiteSpace=wrap;connectable=0;overflow=hidden;fillColor=none;top=0;left=0;bottom=0;right=0;" vertex="1" parent="aCyn5NSVWf0VDw9uky3m-43">
          <mxGeometry width="60" height="20" as="geometry" />
        </mxCell>
        <mxCell id="aCyn5NSVWf0VDw9uky3m-45" value="15001" style="shape=partialRectangle;html=1;whiteSpace=wrap;connectable=0;overflow=hidden;fillColor=none;top=0;left=0;bottom=0;right=0;" vertex="1" parent="aCyn5NSVWf0VDw9uky3m-43">
          <mxGeometry x="60" width="60" height="20" as="geometry" />
        </mxCell>
        <mxCell id="aCyn5NSVWf0VDw9uky3m-46" value="pod_ip" style="shape=partialRectangle;html=1;whiteSpace=wrap;connectable=0;overflow=hidden;fillColor=none;top=0;left=0;bottom=0;right=0;" vertex="1" parent="aCyn5NSVWf0VDw9uky3m-43">
          <mxGeometry x="120" width="60" height="20" as="geometry" />
        </mxCell>
        <mxCell id="aCyn5NSVWf0VDw9uky3m-47" value="random" style="shape=partialRectangle;html=1;whiteSpace=wrap;connectable=0;overflow=hidden;fillColor=none;top=0;left=0;bottom=0;right=0;" vertex="1" parent="aCyn5NSVWf0VDw9uky3m-43">
          <mxGeometry x="180" width="60" height="20" as="geometry" />
        </mxCell>
        <mxCell id="aCyn5NSVWf0VDw9uky3m-59" value="" style="shape=table;html=1;whiteSpace=wrap;startSize=0;container=1;collapsible=0;childLayout=tableLayout;shadow=0;fillColor=#ffe6cc;strokeColor=#d79b00;strokeWidth=2;rounded=0;sketch=0;" vertex="1" parent="1">
          <mxGeometry x="444" y="290" width="240" height="40" as="geometry" />
        </mxCell>
        <mxCell id="aCyn5NSVWf0VDw9uky3m-60" value="" style="shape=partialRectangle;html=1;whiteSpace=wrap;collapsible=0;dropTarget=0;pointerEvents=0;fillColor=none;top=0;left=0;bottom=0;right=0;points=[[0,0.5],[1,0.5]];portConstraint=eastwest;" vertex="1" parent="aCyn5NSVWf0VDw9uky3m-59">
          <mxGeometry width="240" height="20" as="geometry" />
        </mxCell>
        <mxCell id="aCyn5NSVWf0VDw9uky3m-61" value="sip" style="shape=partialRectangle;html=1;whiteSpace=wrap;connectable=0;overflow=hidden;fillColor=none;top=0;left=0;bottom=0;right=0;" vertex="1" parent="aCyn5NSVWf0VDw9uky3m-60">
          <mxGeometry width="60" height="20" as="geometry" />
        </mxCell>
        <mxCell id="aCyn5NSVWf0VDw9uky3m-62" value="sport" style="shape=partialRectangle;html=1;whiteSpace=wrap;connectable=0;overflow=hidden;fillColor=none;top=0;left=0;bottom=0;right=0;" vertex="1" parent="aCyn5NSVWf0VDw9uky3m-60">
          <mxGeometry x="60" width="60" height="20" as="geometry" />
        </mxCell>
        <mxCell id="aCyn5NSVWf0VDw9uky3m-63" value="dip" style="shape=partialRectangle;html=1;whiteSpace=wrap;connectable=0;overflow=hidden;fillColor=none;top=0;left=0;bottom=0;right=0;" vertex="1" parent="aCyn5NSVWf0VDw9uky3m-60">
          <mxGeometry x="120" width="60" height="20" as="geometry" />
        </mxCell>
        <mxCell id="aCyn5NSVWf0VDw9uky3m-64" value="dport" style="shape=partialRectangle;html=1;whiteSpace=wrap;connectable=0;overflow=hidden;fillColor=none;top=0;left=0;bottom=0;right=0;" vertex="1" parent="aCyn5NSVWf0VDw9uky3m-60">
          <mxGeometry x="180" width="60" height="20" as="geometry" />
        </mxCell>
        <mxCell id="aCyn5NSVWf0VDw9uky3m-65" value="" style="shape=partialRectangle;html=1;whiteSpace=wrap;collapsible=0;dropTarget=0;pointerEvents=0;fillColor=none;top=0;left=0;bottom=0;right=0;points=[[0,0.5],[1,0.5]];portConstraint=eastwest;" vertex="1" parent="aCyn5NSVWf0VDw9uky3m-59">
          <mxGeometry y="20" width="240" height="20" as="geometry" />
        </mxCell>
        <mxCell id="aCyn5NSVWf0VDw9uky3m-66" value="svc_ip" style="shape=partialRectangle;html=1;whiteSpace=wrap;connectable=0;overflow=hidden;fillColor=none;top=0;left=0;bottom=0;right=0;" vertex="1" parent="aCyn5NSVWf0VDw9uky3m-65">
          <mxGeometry width="60" height="20" as="geometry" />
        </mxCell>
        <mxCell id="aCyn5NSVWf0VDw9uky3m-67" value="svc_port" style="shape=partialRectangle;html=1;whiteSpace=wrap;connectable=0;overflow=hidden;fillColor=none;top=0;left=0;bottom=0;right=0;" vertex="1" parent="aCyn5NSVWf0VDw9uky3m-65">
          <mxGeometry x="60" width="60" height="20" as="geometry" />
        </mxCell>
        <mxCell id="aCyn5NSVWf0VDw9uky3m-68" value="pod_ip" style="shape=partialRectangle;html=1;whiteSpace=wrap;connectable=0;overflow=hidden;fillColor=none;top=0;left=0;bottom=0;right=0;" vertex="1" parent="aCyn5NSVWf0VDw9uky3m-65">
          <mxGeometry x="120" width="60" height="20" as="geometry" />
        </mxCell>
        <mxCell id="aCyn5NSVWf0VDw9uky3m-69" value="random" style="shape=partialRectangle;html=1;whiteSpace=wrap;connectable=0;overflow=hidden;fillColor=none;top=0;left=0;bottom=0;right=0;" vertex="1" parent="aCyn5NSVWf0VDw9uky3m-65">
          <mxGeometry x="180" width="60" height="20" as="geometry" />
        </mxCell>
      </root>
    </mxGraphModel>
  </diagram>
</mxfile>
